<?xml version="1.0" encoding="UTF-8"?>
<!-- Simplified variant of icon.svg, tuned for 16-24px toolbox rendering. -->
<svg xmlns="http://www.w3.org/2000/svg" width="24" height="24" viewBox="0 0 24 24" role="img" aria-label="Raster Caster">
  <g transform="rotate(-38 8 7)">
    <path d="M3.2 2.6h9.6l-1.3 5.6a4.2 4.2 0 0 1-7 0z" fill="#333c46"/>
    <path d="M5.1 4.5h5.8l-0.8 3.4a2.2 2.2 0 0 1-4.2 0z" fill="#ff9f1c"/>
  </g>

  <path d="M10.2 5.4c2.1 2.6 2.3 5 2.3 7.6h-2.5c0-2.4-0.3-4.1-1.9-6.2z" fill="#ff9f1c"/>

  <rect x="2" y="13" width="20" height="9" rx="1.5" fill="#333c46"/>
  <rect x="3" y="14" width="5.8" height="3.5" fill="#4f7ba6"/>
  <rect x="9.4" y="14" width="5.8" height="3.5" fill="#ff9f1c"/>
  <rect x="15.8" y="14" width="5.2" height="3.5" fill="#6ea3cd"/>
  <rect x="3" y="18.1" width="5.8" height="2.9" fill="#6ea3cd"/>
  <rect x="9.4" y="18.1" width="5.8" height="2.9" fill="#c6dcee"/>
  <rect x="15.8" y="18.1" width="5.2" height="2.9" fill="#9cc2e0"/>
</svg>
